<!DOCTYPE svg PUBLIC "-//W3C//DTD SVG 1.1//EN" "http://www.w3.org/Graphics/SVG/1.1/DTD/svg11.dtd">
<!-- Uploaded to: SVG Repo, www.svgrepo.com, Transformed by: SVG Repo Mixer Tools -->
<svg fill="#000000" width="800px" height="800px" viewBox="0 0 64 64" xmlns="http://www.w3.org/2000/svg" stroke="#000000" stroke-width="1.92">
<g id="SVGRepo_bgCarrier" stroke-width="0"/>
<g id="SVGRepo_tracerCarrier" stroke-linecap="round" stroke-linejoin="round"/>
<g id="SVGRepo_iconCarrier"> <g id="Outline"> <g data-name="Outline" id="Outline-2"> <path d="M22,41.192V33.885h4.027l5.7,7.893a1,1,0,0,0,1.621-1.171l-5.037-6.973a6.535,6.535,0,0,0-1.774-12.826H21a1,1,0,0,0-1,1V41.192a1,1,0,0,0,2,0Zm9.077-13.846a4.544,4.544,0,0,1-4.539,4.539H22V22.808h4.538A4.544,4.544,0,0,1,31.077,27.346Z"/> <path d="M37.615,26.346a1,1,0,0,0-1,1V41.192a1,1,0,0,0,2,0V36.654h2.231a5.154,5.154,0,1,0,0-10.308ZM44,31.5a3.158,3.158,0,0,1-3.154,3.154H38.615V28.346h2.231A3.158,3.158,0,0,1,44,31.5Z"/> <path d="M32,2A30,30,0,1,0,62,32,30.034,30.034,0,0,0,32,2Zm0,58A28,28,0,1,1,60,32,28.032,28.032,0,0,1,32,60Z"/> <path d="M49.655,16.793a3.172,3.172,0,1,0-3.173,3.172,3.138,3.138,0,0,0,1.264-.266A19.994,19.994,0,0,1,22.691,49.707a1,1,0,1,0-.931,1.769A21.986,21.986,0,0,0,49.229,18.351,3.127,3.127,0,0,0,49.655,16.793Zm-4.344,0a1.172,1.172,0,1,1,1.171,1.172A1.172,1.172,0,0,1,45.311,16.793Z"/> <path d="M16.793,44.035a3.157,3.157,0,0,0-.692.081A19.779,19.779,0,0,1,12,32,20.023,20.023,0,0,1,32,12a19.811,19.811,0,0,1,8.463,1.874,1,1,0,0,0,.848-1.812A21.989,21.989,0,0,0,14.39,45.16a3.141,3.141,0,0,0-.769,2.047,3.173,3.173,0,1,0,3.172-3.172Zm0,4.344a1.172,1.172,0,1,1,1.173-1.172A1.172,1.172,0,0,1,16.793,48.379Z"/> </g> </g> </g>
</svg>